 ##       ##    ## ########   ######   
 ##       ##   ##  ##     ## ##    ##  
 ##       ##  ##   ##     ## ##        
 ##       #####    ########  ##   #### 
 ##       ##  ##   ##   ##   ##    ##  
 ##       ##   ##  ##    ##  ##    ##  
 ######## ##    ## ##     ##  ######   

 NFO:

 Encoded By .......: BigPerm1828
 Runtime ..........: 1h 24mn
 File Size ........: 999 MB
 Resolution .......: 704x396
 Language .........: English
 
 IMDb  http://www.imdb.com/title/tt0892074
 
 Video
 ID : 0
 Format : MPEG-4 Visual
 Format profile : Advanced Simple@L5
 Format settings, BVOP : Yes
 Format settings, QPel : No
 Format settings, GMC : No warppoints
 Format settings, Matrix : Default (H.263)
 Codec ID : XVID
 Codec ID/Hint : XviD
 Duration : 1h 24mn
 Bit rate : 1 190 Kbps
 Width : 704 pixels
 Height : 396 pixels
 Display aspect ratio : 16:9
 Frame rate : 29.970 fps
 Color space : YUV
 Chroma subsampling : 4:2:0
 Bit depth : 8 bits
 Scan type : Progressive
 Compression mode : Lossy
 Bits/(Pixel*Frame) : 0.142
 Stream size : 724 MiB (72%)
 Writing library : XviD 1.2.1 (UTC 2008-12-04)

 Audio
 ID : 1
 Format : AC-3
 Format/Info : Audio Coding 3
 Mode extension : CM (complete main)
 Codec ID : 2000
 Duration : 1h 24mn
 Bit rate mode : Constant
 Bit rate : 448 Kbps
 Channel(s) : 6 channels
 Channel positions : Front: L C R, Side: L R, LFE
 Sampling rate : 48.0 KHz
 Bit depth : 16 bits
 Compression mode : Lossy
 Video delay : 33ms
 Stream size : 272 MiB (27%)
 Alignment : Split accross interleaves
 Interleave, duration : 500 ms (14.98 video frames)
 Interleave, preload duration : 500 ms

 


 


 ----------------------------------                              http://thepiratebay.org/user/hiest
 ----------------------------------







 Screen Shots:
  http://leetleech.org/images/92258696070127443969.png
  http://leetleech.org/images/98894978560196971190.png
  http://leetleech.org/images/35491837803674995706.png
  http://leetleech.org/images/22077457867150392735.png

 ##       ##    ## ########   ######   
 ##       ##   ##  ##     ## ##    ##  
 ##       ##  ##   ##     ## ##        
 ##       #####    ########  ##   #### 
 ##       ##  ##   ##   ##   ##    ##  
 ##       ##   ##  ##    ##  ##    ##  
 ######## ##    ## ##     ##  ######   
